<?xml version="1.0" standalone="no"?>
<!DOCTYPE svg PUBLIC "-//W3C//DTD SVG 20010904//EN"
 "http://www.w3.org/TR/2001/REC-SVG-20010904/DTD/svg10.dtd">
<svg version="1.0" xmlns="http://www.w3.org/2000/svg"
 width="2400.000000pt" height="2400.000000pt" viewBox="0 0 2400.000000 2400.000000"
 preserveAspectRatio="xMidYMid meet">

<g transform="translate(0.000000,2400.000000) scale(0.100000,-0.100000)"
fill="#000000" stroke="none">
<path d="M11465 23994 c-27 -2 -129 -8 -225 -14 -225 -14 -483 -37 -540 -49
-25 -5 -85 -12 -135 -15 -102 -6 -347 -39 -445 -60 -36 -8 -99 -20 -140 -26
-41 -7 -118 -21 -170 -31 -52 -10 -106 -19 -120 -19 -14 0 -72 -12 -130 -26
-58 -14 -136 -31 -175 -39 -94 -18 -215 -47 -360 -85 -66 -17 -160 -42 -210
-54 -49 -13 -126 -35 -170 -49 -44 -14 -138 -43 -210 -65 -279 -85 -311 -95
-350 -113 -22 -10 -96 -36 -165 -59 -68 -23 -129 -45 -135 -49 -5 -5 -23 -11
-40 -15 -16 -4 -55 -18 -85 -31 -30 -13 -109 -44 -175 -70 -66 -26 -151 -62
-190 -80 -38 -18 -103 -45 -143 -61 -40 -15 -77 -33 -83 -41 -6 -7 -18 -13
-25 -13 -14 0 -163 -66 -214 -94 -14 -8 -95 -49 -180 -91 -85 -42 -173 -85
-195 -97 -168 -87 -275 -145 -324 -176 -31 -20 -90 -54 -131 -75 -86 -45 -253
-145 -322 -194 -26 -18 -51 -33 -54 -33 -3 0 -26 -13 -51 -30 -24 -16 -47 -30
-51 -30 -4 0 -29 -17 -57 -38 -27 -20 -129 -90 -225 -155 -96 -65 -188 -128
-205 -140 -173 -127 -496 -372 -520 -393 -16 -14 -46 -38 -65 -53 -19 -14 -37
-28 -40 -31 -3 -3 -30 -25 -60 -50 -30 -25 -57 -47 -60 -50 -3 -3 -30 -25 -60
-50 -30 -25 -62 -52 -70 -60 -8 -8 -31 -28 -50 -44 -127 -104 -300 -268 -594
-562 -294 -294 -458 -467 -562 -594 -16 -19 -36 -42 -44 -50 -8 -8 -35 -40
-60 -70 -25 -30 -47 -57 -50 -60 -3 -3 -25 -30 -50 -60 -25 -30 -47 -57 -50
-60 -3 -3 -17 -21 -31 -40 -15 -19 -39 -48 -53 -65 -21 -24 -237 -309 -393
-520 -43 -58 -393 -583 -393 -589 0 -3 -15 -28 -33 -54 -42 -60 -145 -230
-183 -302 -16 -30 -42 -74 -57 -97 -15 -24 -27 -45 -27 -49 0 -3 -8 -18 -19
-32 -16 -23 -73 -129 -159 -297 -12 -22 -55 -110 -97 -195 -42 -85 -83 -166
-91 -180 -28 -51 -94 -200 -94 -214 0 -7 -6 -19 -13 -25 -8 -6 -26 -43 -41
-83 -16 -40 -45 -109 -66 -153 -20 -44 -43 -98 -49 -120 -7 -22 -23 -62 -36
-90 -13 -27 -31 -70 -40 -95 -10 -25 -27 -72 -40 -105 -12 -33 -28 -73 -35
-90 -30 -72 -181 -518 -207 -610 -9 -33 -19 -64 -23 -70 -4 -5 -14 -39 -24
-75 -10 -36 -25 -87 -33 -115 -8 -27 -26 -90 -38 -140 -13 -49 -41 -157 -63
-240 -43 -166 -56 -224 -77 -335 -8 -41 -19 -84 -23 -95 -5 -11 -17 -65 -26
-120 -10 -55 -26 -147 -36 -205 -11 -58 -24 -136 -31 -175 -6 -38 -17 -99 -25
-135 -19 -92 -53 -335 -64 -470 -6 -63 -14 -142 -19 -175 -13 -81 -39 -407
-51 -635 -5 -102 -10 -372 -10 -600 0 -228 5 -498 10 -600 12 -228 38 -554 51
-635 5 -33 13 -112 19 -175 11 -135 45 -378 64 -470 8 -36 19 -96 25 -135 7
-38 20 -117 31 -175 10 -58 26 -150 36 -205 9 -55 21 -109 26 -120 4 -11 15
-54 23 -95 21 -111 34 -169 77 -335 22 -82 50 -192 63 -243 13 -50 33 -118 44
-150 11 -31 26 -82 32 -112 6 -30 15 -59 19 -65 3 -5 14 -37 23 -70 26 -92
177 -538 207 -610 7 -16 23 -57 35 -90 13 -33 30 -80 40 -105 9 -25 27 -67 40
-95 13 -27 29 -68 36 -90 6 -22 29 -76 49 -120 21 -44 50 -113 66 -153 15 -40
33 -77 41 -83 7 -6 13 -18 13 -25 0 -14 66 -163 94 -214 8 -14 49 -95 91 -180
42 -85 85 -173 97 -195 86 -168 143 -274 159 -297 11 -14 19 -29 19 -32 0 -4
12 -25 27 -49 15 -23 41 -67 57 -97 38 -72 141 -242 183 -302 18 -26 33 -51
33 -54 0 -6 350 -531 393 -589 156 -211 372 -496 393 -520 14 -16 38 -46 53
-65 14 -19 28 -37 31 -40 3 -3 25 -30 50 -60 25 -30 47 -57 50 -60 3 -3 25
-30 50 -60 25 -30 52 -62 60 -70 8 -8 28 -31 44 -50 104 -127 268 -300 562
-594 294 -294 467 -458 594 -562 19 -16 42 -36 50 -44 8 -8 40 -35 70 -60 30
-25 57 -47 60 -50 3 -3 30 -25 60 -50 30 -25 57 -47 60 -50 3 -3 21 -17 40
-31 19 -15 49 -39 65 -53 24 -21 347 -266 520 -393 17 -12 109 -75 205 -140
96 -65 198 -135 225 -155 28 -21 54 -38 59 -38 5 0 17 -6 25 -14 9 -8 32 -22
51 -33 19 -10 74 -44 122 -76 48 -31 116 -72 150 -90 35 -18 81 -44 103 -58
22 -13 53 -31 70 -39 16 -8 55 -31 85 -51 47 -31 148 -86 325 -177 22 -12 110
-55 195 -97 85 -42 166 -83 180 -91 51 -28 200 -94 214 -94 7 0 19 -6 25 -13
6 -8 43 -26 83 -41 40 -16 105 -43 143 -61 39 -18 124 -54 190 -80 66 -26 145
-57 175 -70 30 -13 69 -27 85 -31 17 -4 35 -10 40 -15 6 -4 67 -26 135 -49 69
-23 143 -49 165 -59 39 -18 71 -28 350 -113 72 -22 166 -51 210 -65 44 -14
121 -36 170 -48 50 -13 158 -41 240 -63 159 -41 218 -55 330 -77 39 -8 117
-25 175 -39 58 -14 116 -26 130 -26 14 0 68 -9 120 -19 52 -10 129 -24 170
-31 41 -6 104 -18 140 -25 111 -24 207 -36 495 -64 50 -5 97 -12 105 -15 16
-6 244 -27 520 -48 225 -18 1295 -18 1520 0 276 21 504 42 520 48 8 3 56 10
105 15 288 28 384 40 495 64 36 7 99 19 140 25 41 7 118 21 170 31 52 10 106
19 120 19 14 0 72 12 130 26 58 14 137 31 175 39 39 7 106 22 150 34 44 11
136 34 205 51 204 50 300 76 385 103 44 14 139 43 210 65 279 85 311 95 350
113 22 10 96 36 165 59 68 23 129 45 135 49 5 5 24 11 40 15 17 4 55 18 85 31
30 13 109 44 175 70 66 26 152 62 190 80 39 18 103 45 143 61 40 15 77 33 83
41 6 7 18 13 25 13 14 0 163 66 214 94 14 8 95 49 180 91 85 42 173 85 195 97
177 91 278 146 325 177 30 20 69 43 85 51 17 8 48 26 70 39 22 14 68 40 103
58 34 18 102 59 150 90 48 32 103 66 122 76 19 11 42 25 51 33 8 8 20 14 25
14 5 0 32 17 59 38 28 20 129 90 225 155 96 65 188 128 205 140 173 127 496
372 520 393 17 14 46 38 65 53 19 14 37 28 40 31 3 3 30 25 60 50 30 25 57 47
60 50 3 3 30 25 60 50 30 25 62 52 70 60 8 8 31 28 50 44 127 104 300 268 594
562 294 294 458 467 562 594 16 19 36 42 44 50 8 8 35 40 60 70 25 30 47 57
50 60 3 3 25 30 50 60 25 30 47 57 50 60 3 3 17 21 31 40 15 19 39 49 53 65
21 24 237 309 393 520 43 58 393 583 393 589 0 3 15 28 33 54 42 60 145 230
183 302 16 30 42 74 57 97 15 24 27 45 27 49 0 3 8 18 19 32 16 23 73 129 159
297 12 22 55 110 97 195 42 85 83 166 91 180 28 51 94 200 94 214 0 7 6 19 13
25 8 6 26 43 41 83 16 40 45 109 66 153 20 44 43 98 49 120 7 22 23 63 36 90
13 28 31 70 40 95 10 25 27 72 40 105 12 33 28 74 35 90 30 72 181 518 207
610 9 33 20 65 23 70 4 6 13 35 19 65 6 30 21 81 32 112 11 32 31 100 44 150
13 51 41 161 63 243 43 166 56 224 77 335 8 41 19 84 23 95 5 11 17 65 26 120
10 55 26 147 36 205 11 58 24 137 31 175 6 39 17 99 25 135 21 99 53 341 63
472 5 64 11 120 14 125 8 13 44 444 57 678 5 105 10 377 10 605 0 228 -5 501
-10 605 -13 234 -49 665 -57 678 -3 5 -9 61 -14 125 -10 131 -42 373 -63 472
-8 36 -19 97 -25 135 -7 39 -20 117 -31 175 -10 58 -26 150 -36 205 -9 55 -21
109 -26 120 -4 11 -15 54 -23 95 -21 111 -34 169 -77 335 -22 83 -50 192 -63
243 -13 50 -33 118 -44 150 -11 31 -26 82 -32 112 -6 30 -15 60 -19 65 -3 6
-14 37 -23 70 -26 92 -177 538 -207 610 -7 17 -23 57 -35 90 -13 33 -30 80
-40 105 -9 25 -27 68 -40 95 -13 28 -29 68 -36 90 -6 22 -29 76 -49 120 -21
44 -50 113 -66 153 -15 40 -33 77 -41 83 -7 6 -13 18 -13 25 0 14 -66 163 -94
214 -8 14 -49 95 -91 180 -42 85 -85 173 -97 195 -86 168 -143 274 -159 297
-11 14 -19 29 -19 32 0 4 -12 25 -27 49 -15 23 -41 67 -57 97 -38 72 -141 242
-183 302 -18 26 -33 51 -33 54 0 6 -350 531 -393 589 -156 211 -372 496 -393
520 -14 17 -38 46 -53 65 -14 19 -28 37 -31 40 -3 3 -25 30 -50 60 -25 30 -47
57 -50 60 -3 3 -25 30 -50 60 -25 30 -52 62 -60 70 -8 8 -28 31 -44 50 -104
127 -268 300 -562 594 -294 294 -467 458 -594 562 -19 16 -42 36 -50 44 -8 8
-40 35 -70 60 -30 25 -57 47 -60 50 -3 3 -30 25 -60 50 -30 25 -57 47 -60 50
-3 3 -21 17 -40 31 -19 15 -48 39 -65 53 -24 21 -347 266 -520 393 -17 12
-109 75 -205 140 -96 65 -197 135 -225 155 -27 21 -54 38 -59 38 -5 0 -17 6
-25 14 -9 8 -32 22 -51 33 -19 10 -74 44 -122 76 -48 31 -116 72 -150 90 -35
18 -81 44 -103 58 -22 13 -53 31 -70 39 -16 8 -55 31 -85 51 -47 31 -148 86
-325 177 -22 12 -110 55 -195 97 -85 42 -166 83 -180 91 -51 28 -200 94 -214
94 -7 0 -19 6 -25 13 -6 8 -43 26 -83 41 -40 16 -104 43 -143 61 -38 18 -124
54 -190 80 -66 26 -145 57 -175 70 -30 13 -68 27 -85 31 -16 4 -35 10 -40 15
-6 4 -67 26 -135 49 -69 23 -143 49 -165 59 -39 18 -71 28 -350 113 -71 22
-166 51 -210 65 -44 14 -120 36 -170 49 -49 12 -144 37 -210 54 -145 38 -266
67 -360 85 -38 8 -117 25 -175 39 -58 14 -116 26 -130 26 -14 0 -68 9 -120 19
-52 10 -129 24 -170 31 -41 6 -104 18 -140 26 -98 21 -343 54 -445 60 -49 3
-110 9 -135 15 -53 10 -178 23 -455 45 -143 11 -361 17 -765 19 -311 1 -587 1
-615 -1z m35 -2101 c0 -810 2 -957 15 -1012 53 -223 254 -381 485 -381 231 0
432 158 485 381 13 55 15 201 15 1009 l0 945 128 -7 c260 -14 638 -52 927 -94
1127 -162 2247 -510 3241 -1004 l191 -95 -449 -775 c-247 -426 -467 -810 -488
-853 -74 -150 -76 -299 -3 -447 154 -316 586 -373 817 -108 28 32 229 369 511
857 255 442 468 808 474 814 10 10 346 -212 576 -382 476 -350 837 -661 1261
-1085 489 -490 856 -926 1240 -1476 104 -148 216 -321 211 -326 -2 -2 -374
-218 -828 -479 -913 -528 -906 -523 -974 -661 -70 -142 -70 -296 1 -444 113
-236 412 -343 649 -231 33 16 419 236 858 489 l799 461 108 -222 c271 -557
493 -1137 665 -1737 l53 -185 -27 -8 c-14 -4 -2269 -361 -5011 -793 -4141
-653 -4986 -783 -4995 -772 -77 103 -4010 4818 -4012 4811 -2 -5 554 -1488
1236 -3296 l1240 -3286 85 -133 c169 -265 284 -366 536 -473 154 -64 207 -77
359 -82 158 -6 234 4 423 59 90 26 1877 716 5155 1993 l5018 1953 47 -186
c165 -655 279 -1382 314 -2009 l7 -123 -954 0 c-1050 0 -1011 2 -1130 -61 -71
-38 -167 -136 -203 -207 -73 -144 -73 -309 1 -462 35 -73 141 -177 216 -213
118 -57 110 -57 1127 -57 l935 0 -7 -127 c-18 -342 -74 -837 -134 -1188 -149
-876 -396 -1705 -759 -2545 -76 -176 -290 -620 -299 -620 -4 0 -372 211 -819
468 -446 258 -834 477 -862 486 -27 10 -87 20 -131 23 -383 26 -645 -367 -478
-715 68 -141 57 -134 967 -657 449 -258 816 -473 817 -477 0 -3 -60 -95 -133
-205 -679 -1015 -1528 -1910 -2512 -2649 -219 -165 -621 -442 -629 -433 -2 2
-212 364 -466 804 -254 440 -479 823 -500 851 -107 142 -306 217 -482 181
-108 -22 -182 -61 -259 -137 -134 -133 -181 -321 -125 -505 12 -39 425 -763
942 -1653 l25 -43 -223 -108 c-1317 -640 -2654 -989 -4165 -1087 l-103 -6 0
948 c0 1046 1 1017 -63 1138 -61 115 -192 216 -317 245 -58 13 -182 13 -240 0
-125 -29 -256 -130 -317 -245 -64 -121 -63 -93 -63 -1133 l0 -944 -122 7
c-1166 66 -2332 326 -3433 766 -252 100 -632 272 -836 376 l-96 49 469 810
c257 446 477 835 489 865 26 69 35 196 20 273 -29 135 -138 280 -259 341 -231
117 -514 40 -650 -177 -21 -34 -236 -404 -477 -822 -241 -418 -444 -766 -450
-773 -10 -11 -50 12 -211 120 -1050 705 -1944 1560 -2700 2583 -103 138 -384
547 -384 558 0 2 370 218 823 478 918 529 906 521 973 664 138 288 -10 611
-320 700 -79 23 -229 16 -301 -13 -27 -11 -414 -230 -858 -486 -445 -256 -812
-466 -816 -466 -7 0 -160 307 -231 465 -565 1246 -891 2561 -966 3893 l-7 122
939 0 c1020 0 1018 0 1132 56 116 57 224 190 258 318 20 76 18 202 -6 279 -51
166 -200 301 -368 336 -36 8 -349 11 -999 11 l-946 0 7 143 c18 378 81 897
162 1342 175 951 499 1934 912 2768 l117 235 820 -474 c547 -316 841 -481 884
-494 85 -27 216 -27 302 0 229 70 378 309 341 546 -20 129 -87 244 -185 320
-23 18 -402 240 -842 494 -440 254 -804 465 -808 470 -12 11 200 329 407 610
340 461 631 797 1070 1235 538 538 1014 931 1613 1332 141 95 176 115 184 103
5 -8 219 -379 476 -824 523 -904 519 -899 657 -966 403 -198 832 171 697 600
-14 44 -362 654 -937 1643 l-34 58 252 124 c1209 589 2578 960 3898 1055 85 6
166 13 180 14 14 2 55 4 93 5 l67 1 0 -947z"/>
</g>
</svg>
